#!OML:ASF E:\Style4\Style4.ASF
:FULLY-SPECIFIED
:DEGREES
572
root 0.241988 16.7008 -0.963465 9.3965 -2.54336 2.24166
lowerback 11.7483 2.21096 -1.01783
upperback -0.344122 2.80711 0.137789
thorax -7.01667 1.40793 0.224132
lowerneck 2.50519 -4.16729 -5.81203
upperneck -1.17536 -5.68192 3.82689
head -0.506165 -2.85334 2.25159
rclavicle -3.97569e-016 7.55382e-015
rhumerus -29.6999 -16.8265 -36.932
rradius 43.4169
rwrist -50.2222
rhand -10.7516 21.7381
rfingers 7.12502
rthumb 15.2598 -7.67908
lclavicle -3.97569e-016 7.55382e-015
lhumerus -33.1694 10.3889 37.987
lradius 51.9225
lwrist 50.6483
lhand 0.338354 24.7926
lfingers 7.12502
lthumb 25.9144 53.0464
rfemur -35.9281 3.81717 14.7317
rtibia 56.7215
rfoot -27.5225 -14.8646
rtoes -15.9619
lfemur -34.7049 -1.09363 -22.2427
ltibia 56.0712
lfoot -29.407 9.5599
ltoes -16.9667
573
root 0.242655 16.702 -0.964724 9.39356 -2.51981 2.24954
lowerback 11.7559 2.20558 -1.0251
upperback -0.371013 2.7996 0.147275
thorax -7.05033 1.40479 0.238562
lowerneck 2.62825 -4.1546 -5.78992
upperneck -1.33021 -5.66935 3.80997
head -0.577877 -2.84672 2.24884
rclavicle -3.13086e-014 1.19271e-015
rhumerus -29.5191 -16.8121 -36.9846
rradius 43.4072
rwrist -50.1071
rhand -10.5355 21.7816
rfingers 7.12502
rthumb 15.4679 -7.61954
lclavicle -3.13086e-014 1.19271e-015
lhumerus -33.0635 10.2962 37.9955
lradius 51.9763
lwrist 50.6086
lhand -0.0183449 24.9324
lfingers 7.12502
lthumb 25.5728 53.2357
rfemur -35.9166 3.79065 14.7274
rtibia 56.7073
rfoot -27.468 -14.9383
rtoes -16.3185
lfemur -34.7011 -1.1114 -22.256
ltibia 56.0515
lfoot -29.328 9.53917
ltoes -16.8561
574
root 0.242537 16.7018 -0.966434 9.38288 -2.46246 2.22653
lowerback 11.7536 2.17658 -1.01152
upperback -0.375829 2.76553 0.182881
thorax -7.0548 1.38841 0.27447
lowerneck 2.65937 -4.14837 -5.80932
upperneck -1.395 -5.66281 3.79866
head -0.603805 -2.84295 2.25083
rclavicle -1.37161e-014 -5.1684e-015
rhumerus -29.3131 -16.6947 -37.0578
rradius 43.4405
rwrist -50.0278
rhand -10.3779 21.8018
rfingers 7.12502
rthumb 15.6197 -7.58755
lclavicle -1.37161e-014 -5.1684e-015
lhumerus -33.0065 10.2745 37.9993
lradius 52.0879
lwrist 50.5224
lhand 0.461075 25.0551
lfingers 7.12502
lthumb 26.0319 53.2916
rfemur -35.8998 3.77006 14.7566
rtibia 56.7009
rfoot -27.5005 -14.9052
rtoes -16.1506
lfemur -34.6703 -1.12042 -22.2295
ltibia 56.0278
lfoot -29.2906 9.50965
ltoes -16.9131
575
root 0.244122 16.7012 -0.968974 9.38495 -2.41403 2.23056
lowerback 11.7481 2.16032 -0.977257
upperback -0.389311 2.74841 0.177537
thorax -7.06381 1.37878 0.252543
lowerneck 2.68146 -4.16111 -5.73702
upperneck -1.44187 -5.67908 3.73183
head -0.625345 -2.85049 2.21771
rclavicle -7.15625e-015 -7.95139e-016
rhumerus -29.2144 -16.5739 -37.1035
rradius 43.5002
rwrist -49.7394
rhand -10.1007 21.8555
rfingers 7.12502
rthumb 15.8866 -7.51287
lclavicle -7.15625e-015 -7.95139e-016
lhumerus -32.8533 10.0902 38.02
lradius 52.2376
lwrist 50.599
lhand 1.34529 25.019
lfingers 7.12502
lthumb 26.8783 53.1281
rfemur -35.8946 3.74693 14.7474
rtibia 56.6923
rfoot -27.5175 -14.8953
rtoes -16.0768
lfemur -34.6739 -1.15473 -22.2332
ltibia 56.007
lfoot -29.2875 9.55899
ltoes -17.1018
576
root 0.244925 16.7018 -0.96963 9.37399 -2.34582 2.20119
lowerback 11.7361 2.1456 -0.908287
upperback -0.403969 2.73932 0.187249
thorax -7.06966 1.37213 0.225769
lowerneck 2.7431 -4.18792 -5.67408
upperneck -1.48468 -5.71676 3.65555
head -0.651369 -2.86887 2.18443
rclavicle -9.93923e-017 -7.95139e-016
rhumerus -29.1324 -16.5785 -37.0426
rradius 43.3821
rwrist -48.9684
rhand -9.53586 21.9873
rfingers 7.12502
rthumb 16.4306 -7.33687
lclavicle -9.93923e-017 -7.95139e-016
lhumerus -32.6993 9.85108 38.1066
lradius 52.4512
lwrist 51.0416
lhand 0.344468 24.9276
lfingers 7.12502
lthumb 25.9203 53.1805
rfemur -35.8544 3.70273 14.7923
rtibia 56.6659
rfoot -27.4642 -14.9958
rtoes -16.301
lfemur -34.6399 -1.20668 -22.1906
ltibia 55.9791
lfoot -29.31 9.50244
ltoes -16.8174
577
root 0.245378 16.7016 -0.97027 9.35815 -2.29243 2.15005
lowerback 11.7335 2.14061 -0.863923
upperback -0.420663 2.74227 0.233768
thorax -7.08626 1.37292 0.249024
lowerneck 2.80287 -4.22813 -5.67102
upperneck -1.49333 -5.77436 3.59885
head -0.663187 -2.89734 2.16761
rclavicle -1.82882e-014 -7.95139e-016
rhumerus -29.004 -16.4612 -36.9796
rradius 43.302
rwrist -48.5632
rhand -9.31276 22.1188
rfingers 7.12502
rthumb 16.6454 -7.18743
lclavicle -1.82882e-014 -7.95139e-016
lhumerus -32.5719 9.73744 38.1787
lradius 52.4401
lwrist 51.0918
lhand -0.546003 24.7231
lfingers 7.12502
lthumb 25.0673 53.098
rfemur -35.8094 3.70342 14.8542
rtibia 56.6307
rfoot -27.4839 -14.995
rtoes -16.2242
lfemur -34.5952 -1.239 -22.1252
ltibia 55.958
lfoot -29.3152 9.39684
ltoes -16.3307
578
root 0.245245 16.7047 -0.96923 9.35423 -2.24614 2.12498
lowerback 11.6994 2.1313 -0.845395
upperback -0.433791 2.73537 0.268583
thorax -7.08171 1.36969 0.277505
lowerneck 2.88626 -4.23426 -5.73704
upperneck -1.51976 -5.7884 3.64103
head -0.682245 -2.90486 2.19633
rclavicle -9.44227e-015 2.38542e-015
rhumerus -28.8739 -16.2391 -37.0064
rradius 43.4219
rwrist -48.7152
rhand -9.485 22.0136
rfingers 7.12502
rthumb 16.4795 -7.30656
lclavicle -9.44227e-015 2.38542e-015
lhumerus -32.476 9.65555 38.2211
lradius 52.4389
lwrist 50.8058
lhand -0.0718793 24.4102
lfingers 7.12502
lthumb 25.5215 52.7208
rfemur -35.7553 3.73921 14.876
rtibia 56.5911
rfoot -27.5488 -14.9318
rtoes -15.6918
lfemur -34.6007 -1.25199 -22.0884
ltibia 55.9573
lfoot -29.302 9.38548
ltoes -16.3906
579
root 0.244794 16.7082 -0.968534 9.35722 -2.20836 2.10401
lowerback 11.6793 2.11139 -0.827507
upperback -0.45677 2.71328 0.290775
thorax -7.09479 1.35882 0.294973
lowerneck 2.9802 -4.21853 -5.79865
upperneck -1.57116 -5.77341 3.68965
head -0.71245 -2.89786 2.22717
rclavicle -2.08724e-015 -1.59028e-015
rhumerus -28.7253 -15.9296 -37.0981
rradius 43.5502
rwrist -48.9278
rhand -9.64863 21.8893
rfingers 7.12502
rthumb 16.322 -7.44385
lclavicle -2.08724e-015 -1.59028e-015
lhumerus -32.4479 9.54358 38.2382
lradius 52.5623
lwrist 50.6947
lhand 0.244746 24.1932
lfingers 7.12502
lthumb 25.8248 52.4601
rfemur -35.7282 3.76028 14.9037
rtibia 56.5655
rfoot -27.5607 -14.9901
rtoes -15.6939
lfemur -34.62 -1.25987 -22.0539
ltibia 55.9548
lfoot -29.2942 9.33223
ltoes -16.4971
